<?xml version="1.0" encoding="UTF-8" standalone="no"?>
<svg
   height="24px"
   viewBox="0 0 24 24"
   width="24px"
   fill="#000000"
   version="1.1"
   id="svg6"
   sodipodi:docname="pie_chart_black_24dp.svg"
   inkscape:version="1.1 (c4e8f9e, 2021-05-24)"
   xmlns:inkscape="http://www.inkscape.org/namespaces/inkscape"
   xmlns:sodipodi="http://sodipodi.sourceforge.net/DTD/sodipodi-0.dtd"
   xmlns="http://www.w3.org/2000/svg"
   xmlns:svg="http://www.w3.org/2000/svg">
  <defs
     id="defs10" />
  <sodipodi:namedview
     id="namedview8"
     pagecolor="#ffffff"
     bordercolor="#666666"
     borderopacity="1.0"
     inkscape:pageshadow="2"
     inkscape:pageopacity="0.0"
     inkscape:pagecheckerboard="0"
     showgrid="false"
     inkscape:zoom="25.427802"
     inkscape:cx="9.4188242"
     inkscape:cy="11.837437"
     inkscape:window-width="1296"
     inkscape:window-height="982"
     inkscape:window-x="0"
     inkscape:window-y="25"
     inkscape:window-maximized="0"
     inkscape:current-layer="svg6" />
  <path
     style="fill:#8a0000;stroke:#000000;stroke-width:0;stroke-linecap:butt;stroke-linejoin:miter;stroke-opacity:1;stroke-miterlimit:4;stroke-dasharray:none"
     d="m 12.545323,21.000635 6.017036,-2.595584 2.346008,-6.45286 h -9.051793 z"
     id="path833" />
  <path
     style="fill:#185caf;stroke:#000000;stroke-width:0;stroke-linecap:butt;stroke-linejoin:miter;stroke-opacity:1;stroke-miterlimit:4;stroke-dasharray:none"
     d="m 11.984064,3.3466135 -0.12749,8.6055775 h 9.051793 L 19.250996,6.9800797 15.10757,3.6972112 Z"
     id="path16" />
  <path
     style="fill:#828282;stroke:#000000;stroke-width:0;stroke-linecap:butt;stroke-linejoin:miter;stroke-opacity:1;stroke-miterlimit:4;stroke-dasharray:none"
     d="M 11.920319,2.6772908 5.5458167,5.4820717 2.8366534,11.856574 5.0677291,18.422311 11.378486,21.290837 Z"
     id="path12" />
  <path
     d="M0 0h24v24H0V0z"
     fill="none"
     id="path2" />
  <path
     d="M12 2C6.48 2 2 6.48 2 12s4.48 10 10 10 10-4.48 10-10S17.52 2 12 2zm-1 17.93c-3.94-.49-7-3.86-7-7.93s3.06-7.44 7-7.93v15.86zm2 0V13h6.93c-.45 3.61-3.32 6.48-6.93 6.93zM13 11V4.07c3.61.45 6.48 3.32 6.93 6.93H13z"
     id="path4" />
</svg>
